PathFileType	4	(X/Y/Z)	C:\Users\WrightLab\Desktop\Jo\P5V139.trc
DataRate	CameraRate	NumFrames	NumMarkers	Units	OrigDataRate	OrigDataStartFrame	OrigNumFrames
100.00	100.00	       20	19	mm	100.00	143	       571
Frame#	Time	Headset_Front			Headset_Back			Headset_Left			Headset_Right			Left_Shoulder			Right_Shoulder			Sternum			C7			Left Elbow			Right Elbow			Left Wrist			Right Wrist			Left ASIS			Right ASIS			S2			Left Knee			Right Knee			Left Ankle			Right Ankle			
		X1	Y1	Z1	X2	Y2	Z2	X3	Y3	Z3	X4	Y4	Z4	X5	Y5	Z5	X6	Y6	Z6	X7	Y7	Z7	X8	Y8	Z8	X9	Y9	Z9	X10	Y10	Z10	X11	Y11	Z11	X12	Y12	Z12	X13	Y13	Z13	X14	Y14	Z14	X15	Y15	Z15	X16	Y16	Z16	X17	Y17	Z17	X18	Y18	Z18	X19	Y19	Z19	

143	1.420	233.96167	1560.58997	-69.56270							435.16095	1654.90503	-214.61850				173.53636	1422.03662	-338.16678	366.82928	1307.84021	-246.66214				661.84894	1222.36438	-416.91000	97.42778	1166.19800	-457.96387	578.50531	1175.77051	-224.45944	107.92368	1056.28674	-251.90228	534.21649	923.78864	-249.27000	259.44925	921.57721	-261.80963	434.52145	956.20844	-564.51508	615.37256	512.19745	-250.73334	301.87775	456.77151	-342.92215	636.53680	98.19450	-281.34045	246.94566	192.17363	-644.23743	
144	1.430				208.32039	1595.71350	-202.09483				435.43311	1656.82446	-204.81943				159.80418	1427.10132	-338.65143	366.79507	1309.72070	-237.84465	355.88531	1502.73828	-455.80392	664.12109	1224.37488	-404.47928	99.99651	1168.35864	-454.61575	577.65424	1177.27368	-212.16235	107.98146	1058.19189	-247.01201	534.48810	925.44031	-237.32869	258.78830	923.74622	-253.48254	438.13980	957.65240	-552.80139	617.84979	511.91663	-241.68265	305.77136	460.13544	-328.57678	636.06311	98.46478	-280.39432	250.16832	200.10312	-628.18262	
145	1.440	297.75351	1538.04773	-87.74686	208.42619	1597.15552	-195.10364				436.09439	1658.74634	-195.51045				162.77502	1429.38403	-332.43915	366.85663	1311.14001	-228.83839	359.59457	1504.97375	-446.11255	666.80139	1225.39600	-390.02197	102.82980	1170.43994	-447.50778	577.24304	1179.08765	-200.68385	108.65222	1059.19177	-240.82486	534.38843	926.82043	-225.83394	258.68585	925.98560	-245.07338	442.18973	959.45526	-540.67780	620.35083	511.31476	-232.82858	303.55692	463.84088	-299.88586	636.36469	99.34722	-279.68158	254.10255	208.35692	-611.87860	
146	1.450	296.06860	1539.99182	-79.37430	208.32697	1598.74548	-188.10573				436.03546	1661.12854	-185.56429				163.56032	1432.33069	-326.86542	365.70929	1312.85217	-220.38066	362.93356	1507.01221	-437.54077	669.11688	1226.70874	-376.64676	104.69060	1172.05322	-440.21445	575.93597	1181.09070	-187.99431	108.75095	1061.67566	-236.27229	533.60492	927.71332	-214.98331	258.33829	927.96844	-240.13890	445.94788	961.59485	-529.88226	622.05524	512.27765	-225.39395	301.17032	465.92801	-281.59888	635.95001	99.98708	-279.48431	257.45065	217.31909	-595.89392	
147	1.460	294.63571	1541.36804	-70.98517	208.09857	1600.66504	-180.80687										161.55957	1435.23376	-322.32675	364.96597	1314.36279	-212.56740	366.03122	1509.70679	-428.93039	672.32990	1228.22180	-363.53433	107.96777	1175.08740	-438.87238	574.68268	1182.36841	-175.79506	109.05216	1063.55017	-231.28500	532.51874	928.59845	-203.74892	255.64926	930.61359	-233.96922	450.59479	963.80524	-519.01056	624.81677	513.38971	-217.42871	297.90326	467.67883	-263.56607	635.82227	100.12524	-278.95236	261.41278	224.66989	-581.08234	
148	1.470	293.25644	1542.83813	-62.90835	207.67932	1602.61853	-173.33968										163.44096	1437.65613	-316.31216	364.38855	1315.55737	-205.07570	369.32501	1511.48901	-419.72473	674.41626	1229.73523	-348.07980	110.88992	1177.32935	-433.41901	572.97144	1184.38269	-164.08891	108.62072	1065.87134	-226.13412	531.25354	929.99548	-192.18164	254.01167	931.73193	-228.40997	455.25662	965.76526	-507.46591	627.38116	514.41772	-210.54836	293.03442	468.85403	-243.73103	635.63544	101.00576	-278.76678	265.68872	231.73027	-565.00739	
149	1.480	291.08041	1544.36096	-54.52148	207.21248	1604.33447	-165.91373										164.25504	1439.92505	-311.51270	362.74042	1316.86365	-197.43373	372.14807	1514.19080	-410.97186	675.21173	1231.82727	-336.30420	113.52865	1179.51245	-427.86127	571.76361	1186.08044	-151.81517	108.73000	1068.36304	-221.46407	529.05573	930.81641	-181.29579	251.30624	934.36212	-222.69116	460.17596	967.77692	-496.54794	629.79932	516.28247	-203.17267	290.19232	470.30621	-225.75726	635.54236	101.87971	-277.84045	270.24197	240.07115	-549.95789	
150	1.490	289.27902	1545.22144	-46.34907	206.54269	1605.68799	-158.45915										164.86613	1442.28564	-306.51175	361.15466	1318.56567	-189.14642	375.06732	1515.92798	-402.35916	676.97064	1233.58887	-319.48553	115.77445	1182.13660	-422.91788	569.11481	1187.59277	-139.10045	108.36657	1070.62976	-216.68645	525.88751	931.70886	-170.72765	248.79549	935.72504	-217.55049	465.21225	969.14008	-485.01044	632.15173	517.76831	-196.21635	286.37744	471.21344	-207.69168	635.45221	102.53935	-277.17581	276.06888	246.71220	-535.81885	
151	1.500	287.49390	1546.31897	-38.63117	205.81726	1606.79773	-151.17476							580.62177	1489.25061	-255.34184	165.51689	1444.82678	-300.96942	359.31573	1319.24902	-181.41261	377.58792	1518.51978	-393.35007	678.94098	1234.82703	-307.68967	117.63200	1184.61108	-418.42197	566.77344	1189.65027	-127.51969	107.33512	1072.79602	-211.47414	522.86731	932.70648	-160.52110	245.67220	937.51184	-212.56807	470.98154	971.40979	-474.01108	634.98285	519.42773	-189.68474	281.68604	473.65421	-188.82195	635.19000	103.04041	-276.89218	282.74454	250.71399	-516.09412	
152	1.510	284.19476	1546.77490	-30.68674	204.93967	1607.74072	-143.86269							580.41620	1490.11694	-241.64990	166.37157	1447.05444	-296.47498	357.13840	1320.37769	-173.77325	380.38028	1519.93616	-383.80405	679.86957	1236.52515	-292.73599	119.28158	1187.01611	-413.67117	564.03186	1190.65210	-115.32278	106.96461	1075.27087	-206.50874	519.46082	933.82526	-150.07520	241.67548	939.12848	-208.10855	475.99524	973.37457	-463.90274	636.93488	520.40192	-181.85052	277.62573	478.58279	-170.86026	634.77875	103.81995	-276.63980	288.51056	253.17459	-497.94043	
153	1.520	282.01559	1547.03198	-22.56124	203.95601	1608.70313	-136.30011							579.41351	1491.62036	-229.71806	167.05104	1449.03662	-290.12930	354.97665	1322.19275	-166.23804	383.45590	1523.22974	-378.48145	680.37665	1237.21521	-277.88779	121.17104	1189.17224	-409.30215	561.17749	1192.03735	-103.33089	106.30331	1077.37122	-202.39421	515.00446	934.90430	-139.65921	237.96451	941.65503	-203.81219	480.51840	975.70612	-452.49814	638.85181	521.01904	-175.09798	276.51315	484.84268	-153.31534	634.68677	104.74511	-275.55328	295.36273	254.96104	-479.31107	
154	1.530	279.57950	1547.00024	-14.57311	202.86674	1609.65967	-128.62215							578.79663	1492.76306	-216.46109	168.51633	1450.26270	-285.52969	352.87711	1323.13965	-158.62630	385.66272	1524.39233	-368.10287	681.74829	1239.37988	-263.68076	122.58421	1191.07556	-404.95145	558.58630	1193.30579	-90.93755	105.23795	1079.53052	-197.48486	511.27249	935.89777	-129.53169	233.99133	943.59845	-198.39740	484.67944	977.00006	-439.42343	640.47638	523.21960	-165.97488	275.49725	492.03195	-134.86377	634.60669	105.48766	-275.15747	300.93509	255.74864	-461.42319	
155	1.540	278.09592	1546.41455	-7.67328	201.60985	1610.44214	-120.95853							577.49719	1493.22876	-204.73274	168.64549	1452.71790	-280.61917	350.98917	1323.67310	-151.34003	387.50250	1526.23840	-359.39090	681.93280	1240.61768	-249.47791	124.91905	1192.43262	-399.84583	555.44482	1193.99438	-78.73259	104.26920	1081.62585	-192.91406	507.19562	936.88562	-119.48309	230.38693	944.61993	-194.37115	487.68634	979.30206	-428.41690	639.81610	525.24689	-158.03041	274.93945	499.74124	-117.18029	634.43927	106.03036	-274.67270	307.59344	254.54050	-441.04733	
156	1.550	275.83517	1545.67688	0.14751	200.22174	1611.01416	-113.32089							576.79767	1494.54065	-192.36966	167.91898	1455.03345	-275.26843	347.85254	1324.60327	-144.21146	388.69318	1527.45886	-350.10477	681.06335	1242.36719	-233.87686	125.88866	1194.55042	-395.43839	551.14764	1195.24731	-65.66999	103.26564	1083.57617	-188.50964	502.35178	937.37286	-110.32696	226.69725	946.86554	-190.28198	490.21771	980.41174	-416.18039	637.22711	527.51318	-149.01378	274.77545	508.73123	-99.17074	634.73712	106.97229	-273.94217	313.15668	252.49638	-420.74374	
157	1.560	272.96326	1544.84570	7.76879	198.80087	1611.28076	-105.76591							574.41412	1495.25598	-179.41405	168.18779	1456.41016	-270.70862	345.19135	1325.90332	-136.17151	390.20581	1528.55847	-341.38950	680.67114	1243.10022	-219.72209	127.02473	1195.91687	-390.12289	547.94855	1195.73145	-54.10257	102.21027	1085.49756	-183.52588	499.80353	937.89929	-100.60171	221.69690	947.95831	-184.99060	491.92966	981.21039	-404.82349	632.92957	529.74756	-139.39435	272.78726	516.15442	-84.64025	634.68164	107.96992	-273.30515	318.19858	249.51106	-400.73462	
158	1.570	271.51025	1543.48303	14.58506	197.31387	1611.33997	-98.37424							572.38037	1495.86487	-168.45938	170.93723	1456.72498	-264.33875	342.61972	1326.99487	-129.05463	390.94781	1529.63416	-332.21729	681.64862	1243.81030	-204.74727	128.17336	1197.24463	-385.60425	544.60681	1196.31738	-42.42032	100.82040	1087.16589	-179.08443	494.47760	938.16742	-91.98576	218.73064	948.99738	-180.78911	493.01996	982.68439	-393.29108	627.01776	530.72211	-128.97449	267.17004	523.19330	-71.74710	634.55896	108.58794	-272.58429	323.67523	245.21762	-378.23865	
159	1.580	268.90765	1542.46387	21.48849	195.66298	1611.40796	-90.94297							570.69818	1496.25061	-156.93823	170.24292	1457.86731	-259.97238	340.57190	1327.28137	-121.61135	392.00504	1530.60718	-322.97232	679.10138	1245.12939	-190.14389	129.00613	1198.21619	-380.70294	540.45654	1196.78931	-30.35521	98.99020	1088.58215	-174.40048	491.71497	938.03381	-82.25188	215.85977	950.21930	-176.05692	494.06818	982.68378	-382.37207	621.15088	531.81812	-119.65267	261.29300	529.64624	-59.04530	634.74219	109.36667	-271.98184	327.88101	240.31108	-356.54449	
160	1.590	266.31989	1541.27271	28.80339	193.79608	1611.59766	-83.49677							568.49860	1497.41626	-145.22740	167.69775	1459.41650	-255.53200	337.77512	1328.18579	-114.02666	392.50781	1531.13281	-313.92960	679.17065	1245.48523	-174.24586	129.86916	1199.33081	-376.06512	536.83429	1197.37146	-18.71842	97.23837	1090.38342	-169.21710	487.77591	938.03845	-73.85159	213.44409	950.82220	-170.72940	493.69034	982.99493	-371.49695	614.42377	531.93805	-110.04614	256.44284	535.06439	-46.79858	635.09644	110.25938	-271.30072	331.20605	234.99849	-334.31955	
161	1.600	263.28040	1540.08545	36.18072	191.75130	1611.81006	-76.12538							566.85590	1497.94678	-134.15239	168.00967	1459.58240	-248.51422	335.43842	1328.56506	-106.41484	392.70605	1531.93445	-305.33597	677.74072	1246.17761	-160.55391	130.75468	1200.08948	-370.29352	532.06097	1197.34241	-6.89280	95.73784	1091.20740	-164.47974	484.01257	937.77814	-65.31023	210.49364	951.43542	-165.54500	493.78357	983.27222	-362.76846	606.85590	531.63562	-100.31638	251.19547	539.70105	-35.53672	635.03979	111.71647	-270.21268	334.10849	228.43289	-311.41592	
162	1.610	260.29514	1539.42578	43.21693	189.53642	1612.00720	-68.68920							563.86743	1497.96765	-122.89713	169.01430	1459.46252	-243.31317	332.31998	1328.62122	-98.18815	393.16956	1532.24451	-296.97937	675.49030	1247.09729	-145.56091	131.33870	1200.63733	-366.04718	527.98511	1197.72095	4.44440	94.08366	1092.30920	-160.11725	479.99606	937.50995	-56.78823	207.92825	951.78204	-159.99706	493.37436	983.30261	-352.97577	599.84137	530.80585	-91.26488	245.59499	544.51636	-24.70547	635.00366	112.39691	-269.78021	336.19556	221.54466	-287.70352	
